<svg xmlns="http://www.w3.org/2000/svg" id="Layer_1" viewBox="0 0 278.15 112.36">
  <style>
    .studio {
      fill: #000;
    }
    .m, .copyright {
      fill: #fff;
    }
  </style>
  <path d="M92.61 7.72L77.08 71.55H94.6l7.56-41.16 7.44 41.16h17.52L111.58 7.72a.995.995 0 0 0-.97-.76H93.58c-.46 0-.86.31-.97.76zM133.91 6.96h17.4v64.59h-17.4zM63.08 6.96l-7.56 41.16-7.29-40.34a.996.996 0 0 0-.98-.82H17.22l2.97 12.21c.11.45.51.76.97.76h12.56L46.1 70.78c.11.45.51.76.97.76H64.1c.46 0 .86-.32.97-.76L80.6 6.96H63.08zM199.76 8.29c.23-.65-.25-1.34-.94-1.34h-36.26v.01l-1.24-.01-2.93 11.73c-.16.63.32 1.24.97 1.24h17.97l-18.7 50.26c-.24.65.24 1.35.94 1.35h36.82c.46 0 .86-.31.97-.76l3.04-12.2h-18.54l17.9-50.28zM260.69 6.96h-52.66c-.55 0-1 .45-1 1v62.59c0 .55.45 1 1 1h22.88c.46 0 .86-.32.97-.76l2.97-12.22h-9.94V47.29h11.94c.46 0 .86-.32.97-.76l2.97-12.21h-15.88V19.94h31.94c.46 0 .86-.32.97-.76l2.97-12.21h-.1zM253.05 76.28l-227.96.02c-.46 0-.86.32-.97.76l-6.9 28.34h243.7l-6.9-28.36c-.11-.44-.51-.76-.97-.76z" class="m" />
  <path d="M50.29 93.85c.71.28 1.86.53 2.97.53 1.32 0 2.01-.42 2.01-1.04 0-.61-.62-.95-2.06-1.38-2.08-.63-3.3-1.53-3.3-2.75 0-1.58 1.75-2.82 4.75-2.82 1.32 0 2.32.2 2.99.43l-.59 1.67c-.48-.18-1.31-.41-2.44-.41-1.24 0-1.83.44-1.83.93 0 .59.63.86 2.26 1.37 2.16.66 3.11 1.56 3.11 2.79 0 1.62-1.72 2.91-5.04 2.91-1.37 0-2.73-.26-3.37-.52l.54-1.71zM85.76 88.28h-3.2v-1.76h9.3v1.76h-3.24v7.68h-2.86v-7.68zM119.71 86.51v5.64c0 1.56.79 2.27 2.05 2.27 1.32 0 2.08-.67 2.08-2.27v-5.64h2.86v5.45c0 2.77-1.83 4.13-5.02 4.13-3.16 0-4.85-1.33-4.85-4.14v-5.44h2.88zM152.7 86.65c.96-.12 2.25-.2 3.6-.2 2.25 0 3.75.31 4.89.96 1.3.73 2.08 1.91 2.08 3.63 0 1.84-.85 3.12-2.08 3.88-1.24.76-3.12 1.13-5.48 1.13-1.33 0-2.35-.06-3.01-.13v-9.27zm2.85 7.74c.22.03.57.04.87.04 2.27.01 3.83-1 3.83-3.36 0-1.96-1.33-3.03-3.6-3.03-.51 0-.87.03-1.1.07v6.28zM191.53 86.51v9.44h-2.86v-9.44h2.86zM228.35 91.12c0 3.24-2.36 4.98-5.82 4.98-3.64 0-5.61-2.16-5.61-4.82 0-2.75 2.21-4.9 5.81-4.9 3.8-.01 5.62 2.26 5.62 4.74zm-8.41.13c0 1.94 1.02 3.18 2.73 3.18 1.74 0 2.67-1.38 2.67-3.23 0-1.69-.89-3.16-2.68-3.16-1.73 0-2.72 1.32-2.72 3.21z" class="studio"/>
  <g>
    <path d="M268.14 6.96c.55 0 1.07.11 1.56.32.49.21.91.5 1.28.85a4.015 4.015 0 0 1 1.18 2.83c0 .55-.11 1.08-.32 1.56s-.5.91-.86 1.27a4.06 4.06 0 0 1-2.84 1.18 4.015 4.015 0 0 1-2.83-1.18c-.36-.36-.65-.79-.86-1.27s-.32-1.01-.32-1.56.11-1.07.32-1.56c.21-.49.5-.91.86-1.27s.79-.64 1.27-.85c.48-.22 1-.32 1.56-.32zm0 .89c-.42 0-.8.08-1.17.25-.37.16-.68.39-.96.67-.27.28-.48.61-.64.99-.16.38-.23.78-.23 1.21 0 .43.08.84.23 1.21.15.38.37.71.64.99s.59.5.96.67c.36.16.75.25 1.17.25.42 0 .81-.08 1.17-.25.36-.16.68-.39.95-.67.27-.28.48-.61.64-.99.16-.38.23-.78.23-1.21 0-.43-.08-.83-.23-1.21-.15-.38-.37-.71-.64-.99s-.59-.5-.95-.67c-.36-.17-.75-.25-1.17-.25zm.88 5.38l-.65-1.47a.78.78 0 0 0-.25-.31.656.656 0 0 0-.38-.11h-.18v1.88h-.89V8.68h1.37c.51 0 .92.09 1.23.28s.46.51.46.98c0 .33-.09.59-.29.78-.19.19-.43.3-.71.35.11.03.21.09.3.19s.19.25.29.45l.72 1.53h-1.02zm-.2-3.2c0-.22-.07-.38-.22-.48-.14-.1-.36-.15-.64-.15h-.39v1.28h.36c.27 0 .49-.05.65-.16.16-.12.24-.28.24-.49z" class="copyright" />
  </g>
</svg>
